<svg width="38" height="43" viewBox="0 0 38 43" fill="none" xmlns="http://www.w3.org/2000/svg">
<path d="M7.75 41.375C7.75032 41.6733 7.86895 41.9592 8.07986 42.1701C8.29077 42.381 8.57673 42.4997 8.875 42.5H29.125C29.4233 42.4997 29.7092 42.381 29.9201 42.1701C30.131 41.9592 30.2497 41.6733 30.25 41.375V38.75H7.75V41.375Z" fill="black"/>
<path d="M6.24999 17.75H1.41821L6.24999 22.2101V17.75Z" fill="black"/>
<path d="M31.75 25.2501H36.5818L31.75 20.79V25.2501Z" fill="black"/>
<path d="M7.75 17.75H30.25V25.25H7.75V17.75Z" fill="black"/>
<path d="M30.25 1.625C30.2497 1.32673 30.131 1.04077 29.9201 0.829861C29.7092 0.618953 29.4233 0.500323 29.125 0.5H8.875C8.57673 0.500323 8.29077 0.618953 8.07986 0.829861C7.86895 1.04077 7.75032 1.32673 7.75 1.625V4.25H30.25V1.625Z" fill="black"/>
<path d="M37.2965 5.75H4.39267L0.571045 16.25H33.475L37.2965 5.75ZM11.5 8.75H8.68745C8.63772 8.75 8.59003 8.76975 8.55487 8.80492C8.51971 8.84008 8.49995 8.88777 8.49995 8.9375V13.0625C8.49995 13.1122 8.51971 13.1599 8.55487 13.1951C8.59003 13.2302 8.63772 13.25 8.68745 13.25H11.5V14.75H8.68745C8.24006 14.7495 7.81114 14.5715 7.49478 14.2552C7.17843 13.9388 7.00047 13.5099 6.99995 13.0625V8.9375C7.00047 8.49011 7.17843 8.06119 7.49478 7.74483C7.81114 7.42848 8.24006 7.25052 8.68745 7.25H11.5V8.75ZM18.25 14.75H16.75V14.0582L16.5062 12.5H14.7437L14.5 14.0582V14.75H13V14C13.0001 13.9612 13.0032 13.9225 13.0093 13.8842L13.9468 7.88422C13.9744 7.70758 14.0642 7.54661 14.2 7.43033C14.3358 7.31404 14.5087 7.25009 14.6875 7.25H16.5625C16.7412 7.25009 16.9141 7.31404 17.0499 7.43033C17.1857 7.54661 17.2755 7.70758 17.3031 7.88422L18.2406 13.8842C18.2467 13.9225 18.2498 13.9612 18.25 14V14.75ZM24.25 8.75H21.4375C21.3877 8.75 21.34 8.76975 21.3049 8.80492C21.2697 8.84008 21.25 8.88777 21.25 8.9375V10.0625C21.25 10.1122 21.2697 10.1599 21.3049 10.1951C21.34 10.2302 21.3877 10.25 21.4375 10.25H22.5625C23.0098 10.2505 23.4388 10.4285 23.7551 10.7448C24.0715 11.0612 24.2494 11.4901 24.25 11.9375V13.0625C24.2494 13.5099 24.0715 13.9388 23.7551 14.2552C23.4388 14.5715 23.0098 14.7495 22.5625 14.75H19.75V13.25H22.5625C22.6122 13.25 22.6599 13.2302 22.695 13.1951C22.7302 13.1599 22.75 13.1122 22.75 13.0625V11.9375C22.75 11.8878 22.7302 11.8401 22.695 11.8049C22.6599 11.7698 22.6122 11.75 22.5625 11.75H21.4375C20.9901 11.7495 20.5611 11.5715 20.2448 11.2552C19.9284 10.9388 19.7505 10.5099 19.75 10.0625V8.9375C19.7505 8.49011 19.9284 8.06119 20.2448 7.74483C20.5611 7.42848 20.9901 7.25052 21.4375 7.25H24.25V8.75ZM31 14.75H29.5V11.75H27.25V14.75H25.75V7.25H27.25V10.25H29.5V7.25H31V14.75Z" fill="black"/>
<path d="M15.3293 8.75L14.9778 11H16.2721L15.9205 8.75H15.3293Z" fill="black"/>
<path d="M4.5249 26.75L0.703369 37.25H33.6072L37.4288 26.75H4.5249ZM11.4999 33.5C11.4992 34.0965 11.2619 34.6684 10.8401 35.0902C10.4183 35.512 9.84642 35.7493 9.2499 35.75H6.9999C6.80099 35.75 6.61022 35.671 6.46957 35.5303C6.32892 35.3897 6.2499 35.1989 6.2499 35V29C6.2499 28.8011 6.32892 28.6103 6.46957 28.4697C6.61022 28.329 6.80099 28.25 6.9999 28.25H9.2499C9.68435 28.2498 10.1096 28.3754 10.4742 28.6116C10.8387 28.8479 11.1271 29.1847 11.3043 29.5814C11.4816 29.978 11.5401 30.4175 11.4729 30.8468C11.4056 31.276 11.2155 31.6765 10.9255 32C11.2958 32.4118 11.5004 32.9462 11.4999 33.5ZM18.2499 35.75H16.7499V35.0582L16.5061 33.5H14.7687L14.4999 35.064V35.75H12.9999V35C12.9999 34.9574 13.0035 34.9149 13.0107 34.873L14.0419 28.873C14.0719 28.6986 14.1625 28.5405 14.2978 28.4265C14.433 28.3125 14.6043 28.25 14.7811 28.25H16.5624C16.7412 28.2501 16.914 28.314 17.0498 28.4303C17.1856 28.5466 17.2754 28.7076 17.303 28.8842L18.2405 34.8842C18.2466 34.9225 18.2498 34.9612 18.2499 35V35.75ZM24.2499 29.75H21.4374C21.3877 29.75 21.34 29.7698 21.3048 29.8049C21.2697 29.8401 21.2499 29.8878 21.2499 29.9375V34.0625C21.2499 34.1122 21.2697 34.1599 21.3048 34.1951C21.34 34.2302 21.3877 34.25 21.4374 34.25H24.2499V35.75H21.4374C20.99 35.7495 20.5611 35.5715 20.2447 35.2552C19.9284 34.9388 19.7504 34.5099 19.7499 34.0625V29.9375C19.7504 29.4901 19.9284 29.0612 20.2447 28.7448C20.5611 28.4285 20.99 28.2505 21.4374 28.25H24.2499V29.75ZM30.9999 29C30.9999 29.1125 30.9747 29.2235 30.926 29.3249C30.8773 29.4262 30.8064 29.5154 30.7187 29.5857L27.7006 32L30.7187 34.4143C30.8064 34.4846 30.8773 34.5738 30.926 34.6751C30.9747 34.7765 30.9999 34.8875 30.9999 35V35.75H29.4999V35.3605L27.2499 33.5605V35.75H25.7499V28.25H27.2499V30.4395L29.4999 28.6395V28.25H30.9999V29Z" fill="black"/>
<path d="M15.4132 29.75L15.0265 32H16.2721L15.9205 29.75H15.4132Z" fill="black"/>
<path d="M9.25 29.75H7.75V31.25H9.25C9.44891 31.25 9.63968 31.171 9.78033 31.0303C9.92098 30.8897 10 30.6989 10 30.5C10 30.3011 9.92098 30.1103 9.78033 29.9697C9.63968 29.829 9.44891 29.75 9.25 29.75Z" fill="black"/>
<path d="M9.25 32.75H7.75V34.25H9.25C9.44891 34.25 9.63968 34.171 9.78033 34.0303C9.92098 33.8897 10 33.6989 10 33.5C10 33.3011 9.92098 33.1103 9.78033 32.9697C9.63968 32.829 9.44891 32.75 9.25 32.75Z" fill="black"/>
</svg>
