<svg width="21" height="20" viewBox="0 0 21 20" fill="none" xmlns="http://www.w3.org/2000/svg">
<rect x="0.75" width="20" height="20" rx="4" fill="#F3F4F6"/>
<path d="M7.15723 16.7074C7.15733 16.8075 7.19712 16.9034 7.26784 16.9741C7.33857 17.0448 7.43446 17.0846 7.53448 17.0847H14.3251C14.4251 17.0846 14.521 17.0448 14.5917 16.9741C14.6624 16.9034 14.7022 16.8075 14.7023 16.7074V15.8272H7.15723V16.7074Z" fill="#EF6820"/>
<path d="M6.65446 8.78485H5.03418L6.65446 10.2805V8.78485Z" fill="#EF6820"/>
<path d="M15.2053 11.3H16.8256L15.2053 9.80432V11.3Z" fill="#EF6820"/>
<path d="M7.15723 8.78485H14.7023V11.2999H7.15723V8.78485Z" fill="#EF6820"/>
<path d="M14.7023 3.37726C14.7022 3.27723 14.6624 3.18134 14.5917 3.11062C14.521 3.03989 14.4251 3.00011 14.3251 3H7.53448C7.43446 3.00011 7.33857 3.03989 7.26784 3.11062C7.19712 3.18134 7.15733 3.27723 7.15723 3.37726V4.25752H14.7023V3.37726Z" fill="#EF6820"/>
<path d="M17.0654 4.76004H6.03154L4.75 8.28109H15.7839L17.0654 4.76004ZM8.41488 5.76606H7.47174C7.45507 5.76606 7.43907 5.77268 7.42728 5.78447C7.41549 5.79626 7.40887 5.81226 7.40887 5.82893V7.2122C7.40887 7.22888 7.41549 7.24487 7.42728 7.25666C7.43907 7.26845 7.45507 7.27508 7.47174 7.27508H8.41488V7.77809H7.47174C7.32171 7.77791 7.17788 7.71824 7.07179 7.61215C6.96571 7.50606 6.90603 7.36223 6.90586 7.2122V5.82893C6.90603 5.6789 6.96571 5.53507 7.07179 5.42898C7.17788 5.3229 7.32171 5.26322 7.47174 5.26305H8.41488V5.76606ZM10.6784 7.77809H10.1754V7.5461L10.0937 7.02357H9.50263L9.4209 7.5461V7.77809H8.91789V7.52658C8.91793 7.51358 8.91898 7.5006 8.92103 7.48776L9.23541 5.47573C9.24467 5.41649 9.27478 5.36251 9.32031 5.32352C9.36585 5.28452 9.42382 5.26308 9.48377 5.26305H10.1125C10.1725 5.26308 10.2305 5.28452 10.276 5.32352C10.3215 5.36251 10.3516 5.41649 10.3609 5.47573L10.6753 7.48776C10.6773 7.5006 10.6784 7.51358 10.6784 7.52658V7.77809ZM12.6904 5.76606H11.7473C11.7306 5.76606 11.7146 5.77268 11.7028 5.78447C11.6911 5.79626 11.6844 5.81226 11.6844 5.82893V6.20619C11.6844 6.22286 11.6911 6.23886 11.7028 6.25065C11.7146 6.26244 11.7306 6.26906 11.7473 6.26906H12.1246C12.2746 6.26924 12.4184 6.32891 12.5245 6.435C12.6306 6.54109 12.6903 6.68492 12.6904 6.83495V7.2122C12.6903 7.36223 12.6306 7.50606 12.5245 7.61215C12.4184 7.71824 12.2746 7.77791 12.1246 7.77809H11.1814V7.27508H12.1246C12.1412 7.27508 12.1572 7.26845 12.169 7.25666C12.1808 7.24487 12.1874 7.22888 12.1874 7.2122V6.83495C12.1874 6.81827 12.1808 6.80228 12.169 6.79049C12.1572 6.77869 12.1412 6.77207 12.1246 6.77207H11.7473C11.5973 6.7719 11.4534 6.71222 11.3474 6.60613C11.2413 6.50005 11.1816 6.35621 11.1814 6.20619V5.82893C11.1816 5.6789 11.2413 5.53507 11.3474 5.42898C11.4534 5.3229 11.5973 5.26322 11.7473 5.26305H12.6904V5.76606ZM14.954 7.77809H14.451V6.77207H13.6965V7.77809H13.1935V5.26305H13.6965V6.26906H14.451V5.26305H14.954V7.77809Z" fill="#EF6820"/>
<path d="M9.69895 5.7673L9.58105 6.52181H10.0151L9.89719 5.7673H9.69895Z" fill="#EF6820"/>
<path d="M6.07594 11.8024L4.79443 15.3235H15.8283L17.1099 11.8024H6.07594ZM8.41492 14.0659C8.41469 14.266 8.33512 14.4577 8.19367 14.5992C8.05223 14.7406 7.86045 14.8202 7.66041 14.8204H6.9059C6.8392 14.8204 6.77523 14.7939 6.72806 14.7468C6.6809 14.6996 6.6544 14.6356 6.6544 14.5689V12.5569C6.6544 12.4902 6.6809 12.4262 6.72806 12.3791C6.77523 12.3319 6.8392 12.3054 6.9059 12.3054H7.66041C7.8061 12.3053 7.94869 12.3474 8.07095 12.4267C8.19321 12.5059 8.2899 12.6189 8.34934 12.7519C8.40877 12.8849 8.4284 13.0323 8.40586 13.1762C8.38331 13.3201 8.31956 13.4545 8.2223 13.5629C8.34647 13.701 8.41509 13.8802 8.41492 14.0659ZM10.6785 14.8204H10.1754V14.5885L10.0937 14.0659H9.51107L9.42094 14.5904V14.8204H8.91793V14.5689C8.91794 14.5547 8.91915 14.5404 8.92155 14.5263L9.26736 12.5143C9.27741 12.4558 9.3078 12.4028 9.35316 12.3646C9.39852 12.3264 9.45593 12.3054 9.51525 12.3054H10.1126C10.1725 12.3054 10.2305 12.3269 10.276 12.3659C10.3216 12.4049 10.3517 12.4589 10.3609 12.5181L10.6753 14.5301C10.6774 14.543 10.6784 14.5559 10.6785 14.5689V14.8204ZM12.6905 12.8084H11.7473C11.7307 12.8084 11.7147 12.815 11.7029 12.8268C11.6911 12.8386 11.6845 12.8546 11.6845 12.8713V14.2546C11.6845 14.2712 11.6911 14.2872 11.7029 14.299C11.7147 14.3108 11.7307 14.3174 11.7473 14.3174H12.6905V14.8204H11.7473C11.5973 14.8203 11.4535 14.7606 11.3474 14.6545C11.2413 14.5484 11.1816 14.4046 11.1815 14.2546V12.8713C11.1816 12.7213 11.2413 12.5774 11.3474 12.4713C11.4535 12.3653 11.5973 12.3056 11.7473 12.3054H12.6905V12.8084ZM14.954 12.5569C14.954 12.5946 14.9456 12.6319 14.9292 12.6658C14.9129 12.6998 14.8891 12.7297 14.8597 12.7533L13.8476 13.5629L14.8597 14.3725C14.8891 14.3961 14.9129 14.426 14.9292 14.46C14.9456 14.494 14.954 14.5312 14.954 14.5689V14.8204H14.451V14.6898L13.6965 14.0862V14.8204H13.1935V12.3054H13.6965V13.0396L14.451 12.436V12.3054H14.954V12.5569Z" fill="#EF6820"/>
<path d="M9.72709 12.8091L9.59741 13.5636H10.0151L9.8972 12.8091H9.72709Z" fill="#EF6820"/>
<path d="M7.66023 12.8091H7.15723V13.3121H7.66023C7.72694 13.3121 7.79091 13.2856 7.83807 13.2385C7.88524 13.1913 7.91174 13.1273 7.91174 13.0606C7.91174 12.9939 7.88524 12.9299 7.83807 12.8828C7.79091 12.8356 7.72694 12.8091 7.66023 12.8091Z" fill="#EF6820"/>
<path d="M7.66023 13.8148H7.15723V14.3178H7.66023C7.72694 14.3178 7.79091 14.2913 7.83807 14.2441C7.88524 14.197 7.91174 14.133 7.91174 14.0663C7.91174 13.9996 7.88524 13.9356 7.83807 13.8885C7.79091 13.8413 7.72694 13.8148 7.66023 13.8148Z" fill="#EF6820"/>
</svg>
