<svg width="120" height="87" viewBox="0 0 120 87" fill="none" xmlns="http://www.w3.org/2000/svg">
<path d="M119.771 25.7956C119.725 25.728 119.673 25.6645 119.614 25.6063C103.691 9.68278 82.5191 0.913086 60 0.913086C37.4823 0.913086 16.3126 9.68094 0.389612 25.6029C0.142156 25.8485 0 26.1847 0 26.538C0 26.887 0.13847 27.2219 0.385663 27.4688L9.10271 36.1861C9.34964 36.4331 9.68423 36.5715 10.0333 36.5715C10.3824 36.5715 10.7172 36.4328 10.9639 36.1861C24.0833 23.066 41.4979 15.8408 60 15.8408C78.5018 15.8408 95.9164 23.0662 109.036 36.1859C109.283 36.4328 109.618 36.5713 109.966 36.5713C110.315 36.5713 110.651 36.4325 110.897 36.1859L119.614 27.4686C119.861 27.2216 120 26.887 120 26.5377C120 26.2731 119.92 26.0146 119.771 25.7956Z" fill="black"/>
<path d="M60 23.9663C43.6636 23.9663 28.2884 30.3452 16.7062 41.9277C16.1923 42.4418 16.1923 43.2753 16.7064 43.7891L25.3964 52.4788C25.6433 52.7257 25.9779 52.8645 26.327 52.8645C26.676 52.8645 27.0109 52.7257 27.2575 52.4788C36.0178 43.7186 47.6458 38.8937 60 38.8937C72.3546 38.8937 83.9827 43.7186 92.7421 52.4788C92.9891 52.7257 93.3239 52.8645 93.673 52.8645C94.0221 52.8645 94.3569 52.7257 94.6036 52.4788L103.294 43.7891C103.541 43.5422 103.679 43.2076 103.679 42.8583C103.679 42.509 103.541 42.1744 103.294 41.9274C91.7115 30.3454 76.3363 23.9663 60 23.9663Z" fill="black"/>
<path d="M60 47.02C49.8119 47.02 40.223 50.9977 32.9999 58.2211C32.7527 58.468 32.6143 58.8026 32.6143 59.1522C32.6143 59.5013 32.7525 59.8361 32.9999 60.0828L41.6899 68.7727C41.9368 69.0197 42.2714 69.1584 42.6204 69.1584C42.9695 69.1584 43.3044 69.0197 43.551 68.7727C47.9523 64.3714 53.7939 61.9477 60 61.9477C66.2062 61.9477 72.0483 64.372 76.4493 68.7727C76.6962 69.0197 77.0308 69.1584 77.3796 69.1584C77.7284 69.1584 78.0636 69.0197 78.3102 68.7727L87.0002 60.0828C87.514 59.5687 87.514 58.7352 87.0002 58.2216C79.7773 50.9977 70.1884 47.02 60 47.02Z" fill="black"/>
<path d="M59.9999 71.4478C56.4405 71.4478 53.0951 72.8335 50.5797 75.3497C50.0658 75.8638 50.0658 76.697 50.58 77.2109L59.0693 85.7007C59.3162 85.9476 59.6508 86.0864 59.9999 86.0864C60.349 86.0864 60.6841 85.9476 60.9305 85.7007L69.4198 77.2109C69.9337 76.6967 69.9337 75.8635 69.4198 75.3494C66.9042 72.8335 63.5588 71.4478 59.9999 71.4478Z" fill="black"/>
</svg>
